<?xml version="1.0" encoding="UTF-8"?>
<svg xmlns="http://www.w3.org/2000/svg" width="200" height="40" viewBox="0 0 200 40" fill="none">
  <path fill-rule="evenodd" clip-rule="evenodd" d="M28.1402 6.39301C28.9295 5.97885 29.8485 5.8863 30.7045 6.13476C31.5605 6.38322 32.2871 6.9534 32.732 7.72578L32.7462 7.75098L36.2396 14.0243L36.249 14.0415C36.4826 14.4709 36.6199 14.946 36.6512 15.4339C36.6825 15.9217 36.6071 16.4105 36.4302 16.8662C36.2534 17.3219 35.9793 17.7337 35.6272 18.0727C35.2796 18.4073 34.8642 18.6631 34.4092 18.823L24.6629 22.3576V24.3966L31.9433 30.4636C32.7918 31.1707 32.9065 32.4318 32.1993 33.2804C31.4922 34.1289 30.2311 34.2436 29.3825 33.5364L24.6629 29.6034V32C24.6629 33.1046 23.7675 34 22.6629 34C21.5583 34 20.6629 33.1046 20.6629 32V29.6034L15.9433 33.5364C15.0947 34.2436 13.8336 34.1289 13.1264 33.2804C12.4193 32.4318 12.534 31.1707 13.3825 30.4636L20.6629 24.3966V23.8083L15.4301 25.706C13.2474 26.4958 10.7527 25.6574 9.55436 23.6295L9.3329 23.2546C9.31828 23.2298 9.30423 23.2048 9.29075 23.1796C7.98043 20.8743 8.78994 18.0016 11.0393 16.6498L27.9657 6.49178C27.9779 6.48445 27.9902 6.47725 28.0026 6.47018L28.0773 6.42752C28.098 6.41564 28.119 6.40413 28.1402 6.39301ZM12.9982 21.5947C13.1865 21.9132 13.6353 22.1013 14.0684 21.9449L26.7037 17.3626L24.4647 13.2578L13.0998 20.0782C12.6546 20.3461 12.5579 20.8482 12.777 21.2182C12.789 21.2383 12.8005 21.2586 12.8117 21.2791L12.9982 21.5947ZM27.8974 11.1978L30.5076 15.9831L32.3748 15.3059L29.5387 10.2128L27.8974 11.1978Z" fill="#1D4ED8"></path>
  <path d="M186.137 27.83C184.477 27.83 183.037 27.52 181.817 26.9C180.617 26.28 179.687 25.39 179.027 24.23C178.367 23.07 178.037 21.67 178.037 20.03C178.037 18.39 178.367 16.99 179.027 15.83C179.687 14.67 180.607 13.78 181.787 13.16C182.987 12.54 184.357 12.23 185.897 12.23C187.477 12.23 188.817 12.54 189.917 13.16C191.037 13.76 191.887 14.6 192.467 15.68C193.047 16.74 193.337 17.96 193.337 19.34C193.337 19.7 193.327 20.06 193.307 20.42C193.287 20.78 193.257 21.08 193.217 21.32H181.337V18.59H190.967L188.537 19.52C188.537 18.32 188.317 17.4 187.877 16.76C187.457 16.12 186.797 15.8 185.897 15.8C185.257 15.8 184.707 15.95 184.247 16.25C183.807 16.55 183.467 17.02 183.227 17.66C183.007 18.3 182.897 19.12 182.897 20.12C182.897 21.1 183.027 21.9 183.287 22.52C183.547 23.12 183.917 23.56 184.397 23.84C184.877 24.1 185.457 24.23 186.137 24.23C186.897 24.23 187.497 24.08 187.937 23.78C188.397 23.48 188.737 23.06 188.957 22.52L193.037 23.87C192.757 24.73 192.267 25.46 191.567 26.06C190.887 26.64 190.067 27.08 189.107 27.38C188.167 27.68 187.177 27.83 186.137 27.83Z" fill="black"></path>
  <path d="M160.009 33.83V12.53H164.599L164.869 17.96L164.269 17.33C164.409 16.33 164.719 15.45 165.199 14.69C165.679 13.93 166.299 13.33 167.059 12.89C167.819 12.45 168.689 12.23 169.669 12.23C170.909 12.23 171.989 12.54 172.909 13.16C173.829 13.76 174.539 14.64 175.039 15.8C175.559 16.94 175.819 18.33 175.819 19.97C175.819 21.61 175.559 23.02 175.039 24.2C174.519 25.38 173.789 26.28 172.849 26.9C171.929 27.52 170.849 27.83 169.609 27.83C168.249 27.83 167.149 27.43 166.309 26.63C165.469 25.81 164.909 24.78 164.629 23.54L165.109 22.82V33.83H160.009ZM167.869 24.08C168.749 24.08 169.439 23.76 169.939 23.12C170.439 22.46 170.689 21.43 170.689 20.03C170.689 18.63 170.439 17.61 169.939 16.97C169.459 16.31 168.779 15.98 167.899 15.98C167.339 15.98 166.849 16.14 166.429 16.46C166.009 16.76 165.679 17.21 165.439 17.81C165.219 18.41 165.109 19.15 165.109 20.03C165.109 20.87 165.209 21.6 165.409 22.22C165.629 22.82 165.949 23.28 166.369 23.6C166.789 23.92 167.289 24.08 167.869 24.08Z" fill="black"></path>
  <path d="M149.19 12.23C150.77 12.23 152.15 12.54 153.33 13.16C154.53 13.76 155.46 14.65 156.12 15.83C156.8 16.99 157.14 18.39 157.14 20.03C157.14 21.67 156.8 23.08 156.12 24.26C155.46 25.42 154.53 26.31 153.33 26.93C152.15 27.53 150.77 27.83 149.19 27.83C147.65 27.83 146.28 27.53 145.08 26.93C143.88 26.31 142.94 25.42 142.26 24.26C141.6 23.08 141.27 21.67 141.27 20.03C141.27 18.39 141.6 16.99 142.26 15.83C142.94 14.65 143.88 13.76 145.08 13.16C146.28 12.54 147.65 12.23 149.19 12.23ZM149.19 15.86C148.61 15.86 148.11 16 147.69 16.28C147.27 16.56 146.95 17.01 146.73 17.63C146.51 18.25 146.4 19.05 146.4 20.03C146.4 21.01 146.51 21.81 146.73 22.43C146.95 23.03 147.27 23.48 147.69 23.78C148.11 24.06 148.61 24.2 149.19 24.2C149.79 24.2 150.3 24.06 150.72 23.78C151.14 23.48 151.46 23.03 151.68 22.43C151.9 21.81 152.01 21.01 152.01 20.03C152.01 19.05 151.9 18.25 151.68 17.63C151.46 17.01 151.14 16.56 150.72 16.28C150.3 16 149.79 15.86 149.19 15.86Z" fill="black"></path>
  <path d="M132.138 12.23C133.658 12.23 134.918 12.45 135.918 12.89C136.938 13.31 137.728 13.88 138.288 14.6C138.868 15.3 139.228 16.06 139.368 16.88L134.658 18.44C134.518 17.58 134.258 16.94 133.878 16.52C133.518 16.08 132.988 15.86 132.288 15.86C131.648 15.86 131.108 16.01 130.668 16.31C130.248 16.59 129.928 17.05 129.708 17.69C129.488 18.31 129.378 19.11 129.378 20.09C129.378 21.07 129.498 21.87 129.738 22.49C129.978 23.09 130.318 23.53 130.758 23.81C131.198 24.07 131.718 24.2 132.318 24.2C132.818 24.2 133.228 24.11 133.548 23.93C133.888 23.73 134.168 23.45 134.388 23.09C134.608 22.73 134.748 22.29 134.808 21.77L139.398 23.24C139.258 24.12 138.878 24.91 138.258 25.61C137.658 26.29 136.858 26.83 135.858 27.23C134.858 27.63 133.688 27.83 132.348 27.83C130.708 27.83 129.278 27.53 128.058 26.93C126.838 26.31 125.898 25.42 125.238 24.26C124.578 23.08 124.248 21.67 124.248 20.03C124.248 18.39 124.578 16.99 125.238 15.83C125.898 14.65 126.818 13.76 127.998 13.16C129.198 12.54 130.578 12.23 132.138 12.23Z" fill="black"></path>
  <path d="M115.42 27.83C113.92 27.83 112.52 27.59 111.22 27.11C109.94 26.61 108.88 25.9 108.04 24.98L110.44 22.16C110.94 22.8 111.6 23.34 112.42 23.78C113.26 24.2 114.19 24.41 115.21 24.41C115.83 24.41 116.34 24.32 116.74 24.14C117.14 23.96 117.34 23.68 117.34 23.3C117.34 23.02 117.24 22.8 117.04 22.64C116.84 22.46 116.44 22.31 115.84 22.19L113.74 21.77C111.86 21.39 110.52 20.83 109.72 20.09C108.94 19.33 108.55 18.34 108.55 17.12C108.55 16.3 108.8 15.52 109.3 14.78C109.8 14.02 110.57 13.41 111.61 12.95C112.65 12.47 113.98 12.23 115.6 12.23C117.12 12.23 118.46 12.45 119.62 12.89C120.78 13.33 121.7 13.97 122.38 14.81L119.95 17.57C119.47 16.97 118.85 16.5 118.09 16.16C117.33 15.82 116.57 15.65 115.81 15.65C115.33 15.65 114.92 15.7 114.58 15.8C114.26 15.88 114.02 16 113.86 16.16C113.7 16.32 113.62 16.52 113.62 16.76C113.62 17.02 113.74 17.25 113.98 17.45C114.24 17.63 114.71 17.79 115.39 17.93L118.12 18.47C119.66 18.75 120.77 19.26 121.45 20C122.13 20.74 122.47 21.63 122.47 22.67C122.47 23.65 122.21 24.53 121.69 25.31C121.17 26.09 120.39 26.71 119.35 27.17C118.31 27.61 117 27.83 115.42 27.83Z" fill="black"></path>
  <path d="M99.0668 27.83C97.4068 27.83 95.9668 27.52 94.7468 26.9C93.5468 26.28 92.6168 25.39 91.9568 24.23C91.2968 23.07 90.9668 21.67 90.9668 20.03C90.9668 18.39 91.2968 16.99 91.9568 15.83C92.6168 14.67 93.5368 13.78 94.7168 13.16C95.9168 12.54 97.2868 12.23 98.8268 12.23C100.407 12.23 101.747 12.54 102.847 13.16C103.967 13.76 104.817 14.6 105.397 15.68C105.977 16.74 106.267 17.96 106.267 19.34C106.267 19.7 106.257 20.06 106.237 20.42C106.217 20.78 106.187 21.08 106.147 21.32H94.2668V18.59H103.897L101.467 19.52C101.467 18.32 101.247 17.4 100.807 16.76C100.387 16.12 99.7268 15.8 98.8268 15.8C98.1868 15.8 97.6368 15.95 97.1768 16.25C96.7368 16.55 96.3968 17.02 96.1568 17.66C95.9368 18.3 95.8268 19.12 95.8268 20.12C95.8268 21.1 95.9568 21.9 96.2168 22.52C96.4768 23.12 96.8468 23.56 97.3268 23.84C97.8068 24.1 98.3868 24.23 99.0668 24.23C99.8268 24.23 100.427 24.08 100.867 23.78C101.327 23.48 101.667 23.06 101.887 22.52L105.967 23.87C105.687 24.73 105.197 25.46 104.497 26.06C103.817 26.64 102.997 27.08 102.037 27.38C101.097 27.68 100.107 27.83 99.0668 27.83Z" fill="black"></path>
  <path d="M86.9724 6.17V22.43C86.9724 23.09 87.0824 23.56 87.3024 23.84C87.5224 24.12 87.8924 24.26 88.4124 24.26C88.7124 24.26 88.9624 24.24 89.1624 24.2C89.3624 24.16 89.6024 24.1 89.8824 24.02L89.5524 27.08C89.1924 27.3 88.7224 27.48 88.1424 27.62C87.5624 27.76 86.9924 27.83 86.4324 27.83C84.8324 27.83 83.6724 27.46 82.9524 26.72C82.2324 25.98 81.8724 24.77 81.8724 23.09V6.17H86.9724Z" fill="black"></path>
  <path d="M71.8793 27.83C70.2193 27.83 68.7793 27.52 67.5593 26.9C66.3593 26.28 65.4293 25.39 64.7693 24.23C64.1093 23.07 63.7793 21.67 63.7793 20.03C63.7793 18.39 64.1093 16.99 64.7693 15.83C65.4293 14.67 66.3493 13.78 67.5293 13.16C68.7293 12.54 70.0993 12.23 71.6393 12.23C73.2193 12.23 74.5593 12.54 75.6593 13.16C76.7793 13.76 77.6293 14.6 78.2093 15.68C78.7893 16.74 79.0793 17.96 79.0793 19.34C79.0793 19.7 79.0693 20.06 79.0493 20.42C79.0293 20.78 78.9993 21.08 78.9593 21.32H67.0793V18.59H76.7093L74.2793 19.52C74.2793 18.32 74.0593 17.4 73.6193 16.76C73.1993 16.12 72.5393 15.8 71.6393 15.8C70.9993 15.8 70.4493 15.95 69.9893 16.25C69.5493 16.55 69.2093 17.02 68.9693 17.66C68.7493 18.3 68.6393 19.12 68.6393 20.12C68.6393 21.1 68.7693 21.9 69.0293 22.52C69.2893 23.12 69.6593 23.56 70.1393 23.84C70.6193 24.1 71.1993 24.23 71.8793 24.23C72.6393 24.23 73.2393 24.08 73.6793 23.78C74.1393 23.48 74.4793 23.06 74.6993 22.52L78.7793 23.87C78.4993 24.73 78.0093 25.46 77.3093 26.06C76.6293 26.64 75.8093 27.08 74.8493 27.38C73.9093 27.68 72.9193 27.83 71.8793 27.83Z" fill="black"></path>
  <path d="M64.7529 7.73V11.72H58.3029V27.53H53.1429V11.72H46.6629V7.73H64.7529Z" fill="black"></path>
</svg>
